<svg xmlns="http://www.w3.org/2000/svg" width="48" height="42.999" viewBox="0 0 48 42.999">
  <path id="icon" d="M375,463v-1.49h48V463Zm32.36-2.181,0-2.376H390.147v-1.487h17.221l.01-5.251H391.524v-7.53h15.87l.014-6.87-28.572,6.884v12.767H381v1.486h-2.164v2.379h-1.475V444.545l-2.263.544v-3.784l17.213-4.524v-14.6h16.524v10.259l2.263-.595v4.573l-2.214.534-.019,9.4H423v14.466h-1.475v-12.98H408.862l0,1.585h11.289v11.395h-1.476v-.892h-9.834l0,.893Zm1.48-2.377h9.831v-1.387h-9.828Zm.005-2.873h9.825v-1.684H408.85Zm.006-3.171h9.819v-1.486h-9.816ZM393,450.219h14.382l0-1.585h-1.6v-1.487h1.6l0-1.486H393v1.486h1.573v1.487H393Zm-16.427-7.765v.753l33.05-7.963v-1.476Zm17.213-6.06,13.574-3.568v-9.16H393.787v1.684h8.164v7.431h-8.164Zm0-5.1h6.688V429.71H399.1v-1.486h1.377v-1.387h-6.688v1.387h4.524v1.486h-4.524Zm-6,29.525v-10.6h-4.524v10.6h-1.475V448.733h7.475v12.088Zm-3.637-3.171v-1.39h1.48v1.39Zm11.111-9.01v-1.49h9.84v1.49Zm-4.42-27.15V420h19.57v1.49Z" transform="translate(-375 -420)" fill="#fff"/>
</svg>
