<svg xmlns="http://www.w3.org/2000/svg" width="49" height="40" viewBox="0 0 49 40">
  <path id="icon" d="M1208.153,460.966l-15.538-4.441-15.538,4.441a.845.845,0,0,1-1.077-.813v-33.8a.845.845,0,0,1,.613-.813l15.771-4.507a.848.848,0,0,1,.464,0l15.538,4.441,15.538-4.441a.844.844,0,0,1,1.077.813v33.8a.844.844,0,0,1-.613.813l-15.77,4.507a.848.848,0,0,1-.464,0Zm10.879-31.427a.846.846,0,0,1,.336.675V450.5a.845.845,0,0,1-.613.813l-9.525,2.723v5l14.081-4.024V422.963l-14.081,4.025v5l9.061-2.589a.844.844,0,0,1,.741.138Zm-25.573,25.47,14.08,4.024v-5l-14.08-4.025Zm-15.77-28.021v32.044l14.081-4.024v-5l-9.061,2.59a.845.845,0,0,1-1.076-.813V431.5a.844.844,0,0,1,.612-.813l9.526-2.723v-5Zm33.133,11.7a.845.845,0,0,1-.581,1.044l-1.012.29v12.246l8.448-2.415v-4.489a2.54,2.54,0,0,0-1.69,2.39.845.845,0,1,1-1.689,0,4.233,4.233,0,0,1,3.379-4.141v-6.306a.842.842,0,0,1,0-1.421v-4.557l-8.447,2.414v4.521l.547-.157a.844.844,0,0,1,1.045.581Zm-17.363,9.555,14.08,4.025v-12.9h0v-5.621l-6.195-1.77v.571a.845.845,0,1,1-1.69,0v-1.054l-6.2-1.77Zm-8.546-2.8a.845.845,0,0,1-.581,1.045l-1.012.289v3.876l8.448-2.415v-4.175a.842.842,0,0,1,0-1.421V429.724l-8.448,2.415v4.489a2.541,2.541,0,0,0,1.689-2.39.845.845,0,1,1,1.69,0,4.233,4.233,0,0,1-3.38,4.141v6.65l.548-.156a.843.843,0,0,1,1.044.58Zm8.546-17.486,14.08,4.024v-5l-14.08-4.024Zm9.061,19.478-4.505-1.288a.845.845,0,1,1,.464-1.624l4.506,1.288a.845.845,0,0,1-.232,1.658A.831.831,0,0,1,1202.521,447.444Zm-15.982-2.456a.846.846,0,0,1,.58-1.045l1.625-.464a.845.845,0,0,1,.464,1.624l-1.625.464a.822.822,0,0,1-.232.032A.845.845,0,0,1,1186.538,444.988Zm13.117-2.3V441a.845.845,0,0,1,1.69,0v1.69a.845.845,0,1,1-1.69,0Zm12.792-4.46a.845.845,0,0,1,.58-1.045l1.625-.464a.845.845,0,0,1,.464,1.625l-1.625.464a.842.842,0,0,1-1.045-.58Zm-12.792-.61v-1.69a.845.845,0,0,1,1.69,0v1.69a.845.845,0,1,1-1.69,0Z" transform="translate(-1175.999 -420.998)" fill="#fff"/>
</svg>
