<svg xmlns="http://www.w3.org/2000/svg" width="47" height="42.999" viewBox="0 0 47 42.999">
  <path id="icon" d="M375,651V612.549l8.207,8.551-1.018,1.06-5.75-5.991V649.5h2.005v-2.45h1.439v2.45h2.006v-1.35h1.439v1.35h2.005v-2.45h1.439v2.45h2.006v-1.35h1.439v1.35h2.005v-2.45h1.439v2.45h2.006v-1.35h1.439v1.35h2.005v-2.45h1.44v2.45h2.005v-1.35H404v1.35h4.432l-22.814-23.77,1.018-1.06L411.9,651Zm5.757-6v-17.97L398.005,645Zm1.439-1.5H394.53L382.2,630.651Zm16.986-16.747,18-18.754L422,613.02l-5.072,5.284-1.018-1.061,1.611-1.678-.882-.919-13.909,14.492.882.919,8.871-9.243,1.018,1.06-9.5,9.9-7.14,2.42Zm-.079,5.1,3.171-1.075-2.139-2.229Zm1.728-4.7.882.919,13.91-14.492-.883-.919Zm14.927-15.552,2.782,2.9,1.426-1.485-2.782-2.9ZM383.41,623.433l1.018-1.06,1.018,1.06-1.018,1.06Zm30.3-3.892,1.017-1.06,1.018,1.06-1.018,1.06Z" transform="translate(-375 -608)" fill="#fff"/>
</svg>
