<svg xmlns="http://www.w3.org/2000/svg" width="53" height="44" viewBox="0 0 53 44">
  <path id="icon" d="M790.583,651.515a21.832,21.832,0,0,1-7.5-6.62l1.311-.966a20.215,20.215,0,0,0,6.941,6.124,19.661,19.661,0,0,0,9.212,2.3,20.119,20.119,0,0,0,19.9-19.593h-5.1l5.825-7.773L827,632.759h-4.933A21.754,21.754,0,0,1,800.544,654,21.259,21.259,0,0,1,790.583,651.515Zm28.039-20.406h5.108l-2.554-3.408Zm-12.027,13.942V643.4h2.081V627.45l-8.176-5.391-8.175,5.391V643.4h8.822v1.649h-10.44V628.518l-3.391,2.236-.879-1.384,4.271-2.816v-7.709h4.216v4.09H793.3v-2.441h-.98v4.994L800.5,620.1l14.063,9.274-.878,1.384-3.391-2.236v16.534Zm-3.554,0V643.4h1.62v1.65ZM774,631.242h4.933A21.754,21.754,0,0,1,800.456,610a21.376,21.376,0,0,1,3.519.292l-.263,1.627a19.769,19.769,0,0,0-3.256-.27,20.118,20.118,0,0,0-19.9,19.593h5.1l-5.826,7.773Zm5.825,5.056,2.554-3.407h-5.107Zm16.306,2.521v-8.905h8.738v8.905Zm1.618-1.65h5.5v-5.606h-5.5Zm11.56-23.411.72-1.476a21.8,21.8,0,0,1,7.892,6.821l-1.311.966A20.187,20.187,0,0,0,809.309,613.759Zm-3.523-1.375.432-1.589c.6.171,1.207.371,1.794.595l-.568,1.544C806.9,612.726,806.343,612.541,805.785,612.383Z" transform="translate(-774 -610)" fill="#fff"/>
</svg>
