<svg xmlns="http://www.w3.org/2000/svg" width="47.001" height="38" viewBox="0 0 47.001 38">
  <path id="icon" d="M1176,651V613h47v38Zm31.813-1.439h13.748v-5.2h-13.748Zm-15.187,0h13.748v-5.2h-13.748Zm-15.187,0h13.748v-5.2h-12.372v-1.439h12.372V614.439h-13.748Zm30.374-9.608v2.969h13.748V614.439h-13.748v19.237h-1.438V614.439h-13.748v28.482h13.748v-2.969Zm-1.443-3.163v-1.44h1.44v1.44Zm3.612-13.86,3.576-5.11,1.179.826-3.577,5.109Zm-15.186,0,3.576-5.11,1.179.826-3.577,5.109Zm-15.187,0,3.576-5.108,1.179.825-3.576,5.109Zm28.988-2.55,3.576-5.109,1.179.826-3.577,5.108Zm-30.372,0,3.577-5.108,1.178.825L1179.4,621.2Zm15.188,0,3.576-5.108,1.179.825-3.577,5.109Z" transform="translate(-1175.999 -613)" fill="#fff"/>
</svg>
